<?xml version="1.0" encoding="utf-8"?>
<!-- Svg Vector Icons : http://www.onlinewebfonts.com/icon -->
<!DOCTYPE svg PUBLIC "-//W3C//DTD SVG 1.1//EN" "http://www.w3.org/Graphics/SVG/1.1/DTD/svg11.dtd">
<svg version="1.1" xmlns="http://www.w3.org/2000/svg" xmlns:xlink="http://www.w3.org/1999/xlink" x="0px" y="0px" viewBox="0 0 1000 1000" enable-background="new 0 0 1000 1000" xml:space="preserve">
<metadata> Svg Vector Icons : http://www.onlinewebfonts.com/icon </metadata>
<g><g transform="translate(0.000000,511.000000) scale(0.100000,-0.100000)"><path d="M791,4081.7c-258.8-62.7-486.3-249-609.8-500l-72.6-147.1L102.7,170c-5.9-3650.9-15.7-3396,131.4-3625.4c154.9-237.3,388.2-382.3,668.6-415.7c109.8-13.7,1537.2-19.6,4215.6-15.7l4048.9,5.9l117.7,45.1c251,96.1,462.7,300,562.7,547.1l45.1,113.7l5.9,3215.6c3.9,2345.1,0,3247-15.7,3333.3c-49,249-229.4,498-449,613.7c-241.2,129.4,72.5,121.6-4443,119.6C1779.2,4105.2,871.4,4101.3,791,4081.7z M9304.5,3934.6c162.8-64.7,358.8-260.8,423.5-423.5l47.1-117.6V107.3V-3177l-74.5-149c-117.6-239.2-315.7-386.3-576.5-427.4c-152.9-25.5-8093.9-25.5-8246.8,0c-264.7,43.1-486.3,209.8-598,445.1l-52.9,113.7V119v3313.7l54.9,113.7c103.9,207.9,292.2,362.7,513.7,417.6c76.5,19.6,994.1,23.5,4245,21.6l4147-3.9L9304.5,3934.6z"/><path d="M2804.6,479.8V-875.1l45.1,11.8c23.5,5.9,98,11.7,166.7,11.7H3138V491.6v1343.1h-166.7h-166.7V479.8z"/><path d="M4239.9,1028.8c-298-58.8-535.3-294.1-621.6-617.6c-39.2-145.1-45.1-490.2-9.8-635.3c62.7-270.6,237.3-500,456.8-600c239.2-107.8,584.3-84.3,803.9,54.9c302,192.1,452.9,664.7,358.8,1117.6C5122.2,844.5,4716.4,1122.9,4239.9,1028.8z M4555.6,754.3c249-68.6,405.9-447.1,349-835.3c-54.9-362.7-209.8-533.3-490.2-535.3c-241.2,0-394.1,133.3-464.7,411.8c-45.1,178.4-29.4,496.1,31.4,654.9C4081.1,711.2,4298.7,826.8,4555.6,754.3z"/><path d="M6157.5,1019c-339.2-90.2-547.1-466.7-547.1-998c-2-411.7,154.9-723.5,427.4-850.9c96.1-45.1,135.3-51,305.9-51c217.6,0,309.8,31.4,437.2,152.9l62.8,60.8v-186.3c0-233.3-43.1-333.3-178.4-409.8c-78.4-45.1-105.9-49-311.8-49c-182.3,2-249,9.8-351,45.1c-68.6,25.5-127.4,41.2-131.3,37.3s-17.7-58.8-31.4-121.6c-25.5-133.3-15.7-147.1,151-198c194.1-58.8,390.2-76.5,564.7-51c300,43.1,492.1,178.4,586.3,413.7c45.1,107.8,45.1,121.6,51,1154.9l5.9,1043.1h-137.2h-135.3l-13.7-82.4c-23.5-154.9-27.5-160.8-72.6-103.9c-62.8,80.4-200,164.7-321.5,196.1C6379.1,1056.2,6298.7,1056.2,6157.5,1019z M6635.9,722.9c33.3-15.7,86.3-52.9,115.7-82.3c107.8-98,111.8-123.5,111.8-572.5v-415.7l-52.9-70.6c-117.6-154.9-235.3-207.9-429.4-192.2c-172.6,13.7-268.6,78.4-351,239.2c-54.9,105.9-58.8,133.3-64.7,362.7c-13.7,454.9,102,701.9,356.9,766.7C6402.6,779.8,6561.4,762.1,6635.9,722.9z"/></g></g>
</svg>